<svg xmlns="http://www.w3.org/2000/svg" xmlns:xlink="http://www.w3.org/1999/xlink" width="70" height="86" viewBox="0 0 70 86">
  <defs>
    <clipPath id="clip-path">
      <rect id="Rectangle_2" data-name="Rectangle 2" width="70" height="86" transform="translate(0 -0.047)"/>
    </clipPath>
  </defs>
  <g id="Audio" transform="translate(0 0.047)" clip-path="url(#clip-path)">
    <path id="Path_2" data-name="Path 2" d="M2504.375,104l-1.911.274h-1.918l-1.912.534-1.9.533-3.2,1.355-2.867,1.873-2.546,2.422-1.918,2.681-.628,1.615-.328,1.615-.307,1.615V148.6l.307,1.615.328,1.615.628,1.34,1.918,2.955,2.546,2.422,2.867,1.888,3.2,1.34,1.9.533,1.912.533h5.741l1.912-.259,3.509-1.081,3.174-1.615,2.546-1.874,2.239-2.422,1.9-2.681.956-2.955.321-3.229V120.389l-.321-3.214-.956-2.955-1.9-2.7-2.239-2.422-2.546-2.148-3.174-1.34-3.509-1.081-1.912-.26Zm-33.437,32.245-.956.807-.649.807-.314,1.067v9.412l.635,2.681.635,2.7.956,2.681,1.284,2.422,1.263,2.421,1.911,2.148,1.911,2.148,1.918,2.148,2.218,1.615,2.56,1.614,2.853,1.6,2.546,1.081,3.2,1.067,2.874.807,3.174.548v5.636h-10.827l-1.27.274-.956.533-.956.808v4.829l.956.807.956.548,1.27.259h31.539l1.263-.259.956-.548.635-.807.321-1.067v-2.681l-.321-1.081-.635-.808-.956-.533-1.263-.274h-11.162v-5.636l3.2-.548,3.174-.807,2.874-.793,2.854-1.081,2.56-1.341,2.546-1.614,2.219-1.615,2.239-1.874,1.911-2.148,1.591-2.162,1.59-2.148,1.263-2.407.956-2.7.649-2.422.307-2.681.328-2.955v-7.8l-.328-1.067-.628-.807-.956-.807h-5.728l-.956.807-.649.807-.307,1.067v10.22l-.649,2.147-.635,2.148-.956,2.148-1.263,1.888-1.284,1.874-1.59,1.888-1.912,1.341-1.911,1.34-2.225,1.341-2.232,1.081-2.546.808-2.546.533-2.546.533h-5.741l-2.225-.26-2.546-.547-2.232-.808-1.9-.807-2.24-1.067-1.59-1.081-1.912-1.341-1.59-1.614-1.591-1.341-1.277-1.874-.963-1.614-.956-1.888-.628-1.874-.635-2.148-.321-1.888v-9.139l-.328-1.067-.635-.807-.956-.807Z" transform="translate(-2469.006 -104.131)" fill="#EEEe" fill-rule="evenodd"/>
  </g>
</svg>
