<svg xmlns="http://www.w3.org/2000/svg" width="9.76" height="16.974" viewBox="0 0 9.76 16.974">
  <path id="chevron_left_FILL0_wght400_GRAD0_opsz40" d="M336.7-699.168l6.365,6.365a1.148,1.148,0,0,1,.349.874,1.236,1.236,0,0,1-.374.874,1.205,1.205,0,0,1-.886.362,1.2,1.2,0,0,1-.886-.362l-7.239-7.239a1.193,1.193,0,0,1-.281-.412,1.284,1.284,0,0,1-.081-.462,1.284,1.284,0,0,1,.081-.462,1.194,1.194,0,0,1,.281-.412l7.264-7.264a1.205,1.205,0,0,1,.886-.362,1.205,1.205,0,0,1,.886.362,1.205,1.205,0,0,1,.362.886,1.205,1.205,0,0,1-.362.886Z" transform="translate(-333.667 707.667)" fill="#dbdbdb"/>
</svg>
