<svg xmlns="http://www.w3.org/2000/svg" xmlns:xlink="http://www.w3.org/1999/xlink" width="65" height="57" viewBox="0 0 65 57">
  <defs>
    <clipPath id="clip-path">
      <rect id="Rectangle_39" data-name="Rectangle 39" width="65" height="57" transform="translate(1672 1533)"/>
    </clipPath>
  </defs>
  <g id="camera" transform="translate(-1672 -1533)" clip-path="url(#clip-path)">
    <path id="Path_25" data-name="Path 25" d="M1691.62,1537.09l.41.21.2.61v2.45l-.2.62-.41.19H1676.7l-.41-.19-.2-.62v-2.05l.61-.61.62-.4.81-.21Zm39.45,0,.61.21.81.4.42.61v10.22l-.21.61-.4.21h-55.6l-.41-.21-.2-.61v-4.69l.2-.42.41-.2h17.58l3.88-5.72.21-.41Zm-26.57,22.26.81.21.62.41.41.82.2.61-.2.81-.41.62-.62.61h-.81l-.82.21-.81.19-.62.42-.61.41-.62.61-.2.81-.41.61v.83l-.21.81-.4.61-.62.42-.81.19-.82-.19-.62-.42-.4-.61-.21-.81.21-1.64.4-1.43.83-1.43,1.02-1.22,1.22-1.02,1.23-.62,1.64-.61Zm0-3.05-2.25.4-2.05.61-2.04,1.02-1.63,1.43-1.23,1.64-1.02,1.83-.82,2.05-.2,2.25.2,2.24.82,2.25,1.02,1.84,1.23,1.63,1.63,1.43,2.04,1.02,2.05.61,2.25.21,2.25-.21,2.04-.61,2.05-1.02,1.63-1.43,1.23-1.63,1.02-1.84.81-2.25.21-2.24-.21-2.25-.81-2.05-1.02-1.83-1.23-1.64-1.63-1.43-2.05-1.02-2.04-.61Zm1.63-3.89,1.43.2,1.44.41,1.42.42,1.44.81,1.23.61,1.02,1.02,1.22.82,1.02,1.23.81,1.23.83,1.21.61,1.23.41,1.43.4,1.43.21,1.63.21,1.44-.21,1.63-.21,1.42-.4,1.44-.41,1.42-.61,1.44-.83,1.23-.81,1.21-1.02,1.03-1.22,1.02-1.02.81-1.23.82-1.44.62-1.42.61-1.44.2-1.43.41h-3.26l-1.44-.41-1.43-.2-1.43-.61-1.43-.62-1.23-.82-1.02-.81-1.22-1.02-1.02-1.03-.83-1.21-.81-1.23-.61-1.44-.42-1.42-.4-1.44-.21-1.42-.2-1.63.2-1.44.21-1.63.4-1.43.42-1.43.61-1.23.81-1.21.83-1.23,1.02-1.23,1.22-.82,1.02-1.02,1.23-.61,1.43-.81,1.43-.42,1.43-.41,1.44-.2Zm-28-19.4-1.23.2-1.22.21-1.03.61-1.02.81-.61.82-.61,1.02-.41,1.23v47.18l.41,1.23.61,1.02.61.81,1.02.82,1.03.41,1.22.4,1.23.21h52.94l1.23-.21,1.02-.4,1.02-.41,1.02-.82.61-.81.61-1.02.42-1.23v-47.18l-.42-1.23-.61-1.02-.61-.82-1.02-.81-1.02-.61-1.02-.21-1.23-.2Z" fill="#EEEe" fill-rule="evenodd"/>
  </g>
</svg>
