<svg xmlns="http://www.w3.org/2000/svg" xmlns:xlink="http://www.w3.org/1999/xlink" width="89" height="70" viewBox="0 0 89 70">
  <defs>
    <clipPath id="clip-path">
      <rect id="Rectangle_4" data-name="Rectangle 4" width="89" height="70" transform="translate(-0.243 -0.047)"/>
    </clipPath>
  </defs>
  <g id="Chats" transform="translate(0.243 0.047)" clip-path="url(#clip-path)">
    <path id="Path_4" data-name="Path 4" d="M1823.348,148.019l-3.481.241-2.993.255-3.23.751-2.986.751-2.735.992-2.735,1.261-2.483,1.489-2.239,1.5-1.988,1.757-1.988,2-1.493,2-1.493,2.253-.991,2.24-.746,2.507-.509,2.495-.237,2.508.237,2,.258,1.743.488,2,.753,1.757.746,1.744,1,1.757,1.242,1.743,1.242,1.5-1.737,3.245-1.744,2.763-1.988,2.494-.5.751.237.5.509.751h2.735l1.988-.255,3.481-.751,3.23-1.247,2.735-1.5,3.976,1.5,4.228,1.247,4.486.751,4.723.255h3.23l3.237-.5,2.979-.509,2.986-.737,2.735-1.261,2.735-1.247,2.483-1.247,2.24-1.757,2.246-1.743,1.73-2,1.751-2,1.242-2,1-2.508.991-2.253.251-2.495.237-2.494-.237-2.508-.251-2.495-.991-2.507-1-2.24-1.242-2.253-1.751-2-1.73-2-2.246-1.757-2.24-1.5-2.483-1.489-2.735-1.261-2.735-.992-2.986-.751-2.979-.751-3.237-.255Zm36.806,21.738.244,3.259-.244,2.99-.5,3-.991,2.749-1.242,2.749-1.493,2.749-1.751,2.508-2.225,2.239-2.5,2-2.477,2.012-2.993,1.743-2.986,1.5-3.23,1.247-3.481,1.006-3.481.751-3.725.5h-6.216l-2.5-.255,1,1.757,1.242,1.489,1.242,1.5,1.235,1.5,3.244,2.508,3.725,2.239,3.976,1.757,4.479,1.5,4.723.751,4.723.241,4.723-.241,4.486-.751,4.228-1.261,3.976-1.743,2.735,1.5,3.23,1.247,3.481,1.006,2,.241h2.225l.747-.241.258-.51.237-.751-.5-.5-1.988-2.494-1.73-2.749-1.751-3.259,1.242-1.743,1.256-1.5.984-1.743.746-1.757.753-1.743.488-2.011.258-2,.237-2-.237-1.743-.258-2-.488-1.757-.5-1.743-.746-1.757-1-1.744-1.242-1.757-1.235-1.5-1.242-1.247-1.751-1.5-3.23-2.494-3.976-2Z" transform="translate(-1790.534 -148.16)" fill="#EEEe" fill-rule="evenodd"/>
  </g>
</svg>
