<svg xmlns="http://www.w3.org/2000/svg" xmlns:xlink="http://www.w3.org/1999/xlink" width="63" height="66" viewBox="0 0 63 66">
  <defs>
    <clipPath id="clip-path">
      <rect id="Rectangle_16" data-name="Rectangle 16" width="63" height="66" transform="translate(1439 77)" fill="#f1efef"/>
    </clipPath>
  </defs>
  <g id="Group_1" data-name="Group 1" transform="translate(150 -482)">
    <circle id="Ellipse_1" data-name="Ellipse 1" cx="27" cy="27" r="27" transform="translate(-145 488)" fill="#39d753"/>
    <g id="Whatsapp_Logo" transform="translate(-1589 405)" clip-path="url(#clip-path)">
      <path id="Path_12" data-name="Path 12" d="M1459.479,94.318l-1.133.239-.448.464-.674.477-.68.691-.889,1.407-.459.942-.221.93-.227,1.407-.221,1.406.221,1.407.227,1.407,1.122,2.575.906,1.871.662.942,1.139,1.633,2.691,3.516,2.022,1.871,2.261,1.871,2.47,1.871,2.7,1.407,3.15,1.406,2.47.7,2.028.226,1.8-.226,1.354-.477,1.569-.93,1.354-1.168.453-.477.447-.7.448-1.406v-2.575l-.448-.465-1.122-.464-5.178-2.575-.442-.238h-.459l-.448.238-.448.465-2.475,3.039-.227.477h-.9l-.459-.239-3.15-1.632-2.69-2.11-1.349-1.168-1.121-1.181-1.139-1.632-1.121-1.871-.215-.465v-.477l.448-.7.889-.929,1.139-1.871v-1.407l-2.476-6.091-.459-.7-.448-.464h-.906Zm11.018-11.93,2.47.226,2.476.477,2.476.465,2.47.929,2.26,1.18,2.016,1.407,2.022,1.394,2.028,1.871,1.569,1.883,1.581,2.336,1.354,2.109L1494.34,99l.895,2.575.674,2.574.459,2.575.215,2.575-.215,2.813-.459,2.574-.674,2.575-.895,2.575-1.122,2.348-1.133,2.1-1.569,2.11-1.8,1.871-1.8,1.871-2.028,1.406-2.243,1.407-2.26,1.168-2.243.942-2.47.7-2.708.226-2.7.239-3.365-.239-3.382-.7-3.144-1.168-3.15-1.632-.895-.477-9.908,2.575,2.7-9.821-.674-1.181-1.569-3.278-1.354-3.5-.674-3.742-.227-3.755v-2.8l.459-2.575.674-2.575.9-2.574,1.121-2.348,1.133-2.11,1.569-2.1,1.569-1.883,2.028-1.633,1.8-1.633,2.255-1.407,2.249-1.18,2.255-.929,2.476-.465,2.691-.477ZM1470.264,77l-3.15.239-2.917.465-3.15.7-2.7,1.168-2.691,1.407-2.708,1.633-2.243,1.871-2.255,2.11-2.028,2.348-1.8,2.336-1.569,2.813-1.354,2.8-.906,2.813-.889,3.277-.448,3.039-.232,3.278.448,4.446.68,3.981,1.348,3.981,1.8,3.981-4.5,16.627h0l16.422-4.458,3.6,1.646,3.609,1.168,3.812.942,3.824.226,3.382-.226,2.917-.477,3.15-.93,2.7-.942,2.923-1.407,2.476-1.632,2.47-1.871,2.26-2.11,2.011-2.336,1.813-2.348,1.569-2.8,1.348-2.813,1.122-2.813.68-3.277.448-3.04.226-3.516-.226-3.039-.448-3.278-.68-3.039-1.122-2.813-1.348-3.04-1.569-2.574-2.028-2.575-2.028-2.348-2.243-2.11-2.476-2.1-2.475-1.645-2.929-1.168-2.69-1.168-2.935-.7-3.15-.465Z" transform="translate(0 0)" fill="#f1efef" fill-rule="evenodd"/>
    </g>
  </g>
</svg>
