<svg xmlns="http://www.w3.org/2000/svg" xmlns:xlink="http://www.w3.org/1999/xlink" width="139" height="31" viewBox="0 0 139 31">
  <defs>
    <clipPath id="clip-path">
      <rect id="Rectangle_51" data-name="Rectangle 51" width="36" height="31" transform="translate(1471 133)" fill="#39d753"/>
    </clipPath>
  </defs>
  <g id="Group_55" data-name="Group 55" transform="translate(-145 -792)">
    <text id="Footprint_" data-name="Footprint " transform="translate(191 794)" fill="#39d753" font-size="20" font-family="SegoeUI, Segoe UI"><tspan x="0" y="22">Footprint </tspan></text>
    <g id="dogprint" transform="translate(-1326 659)" clip-path="url(#clip-path)">
      <path id="Path_32" data-name="Path 32" d="M1482.4,133l-.789.113-.789.334-.68.554-.566.668-.337.774-.337.888v2.116l.228,1.108.337,1.109.566,1,.56.781.789.661.68.56.9.334.789.107.789-.107.794-.334.68-.447.446-.667.457-.888.223-.888.114-1v-1.109l-.228-1.114-.451-1.108-.451-.888-.68-.888-.674-.668-.789-.554-.789-.226Zm13.091,0-.789.221-.794.226-.783.554-.68.668-.68.888-.446.888-.343,1.108-.223,1.114-.114,1.109.114,1,.223.888.451.888.566.667.566.447.789.334.794.107.9-.107.789-.334.794-.56.68-.661.56-.781.566-1,.337-1.109.223-1.108.114-1-.114-1.115-.223-.888-.451-.774-.566-.668-.566-.554-.783-.334Zm-21.1,8.887-.789.113-.68.22-.674.447-.451.554-.451.668-.228.775-.109.78v.888l.223.888.343.781.446.775.571.667.669.554.68.447.794.221.783.113.68-.113.794-.221.56-.447.565-.554.337-.667.223-.775.12-.781v-.888l-.234-.888-.332-.888-.451-.78-.566-.555-.56-.554-.794-.447-.68-.22Zm29.118,0-.68.113-.789.22-.674.447-.68.554-.566.555-.451.78-.337.888-.228.888v.888l.114.781.229.775.446.667.457.554.674.447.68.221.789.113.789-.113.674-.221.794-.447.56-.554.566-.667.451-.775.343-.781.223-.888v-.888l-.114-.78-.223-.775-.343-.668-.56-.554-.566-.447-.794-.22Zm-14.564,4.446-1.006.114-1.137.22-1.126.441-1.131.667-1.126.668-1.126.888-1.131.888-1.017,1-1.012,1.114-.9,1.109-.794,1.108-.674,1.222-.566,1.114-.337,1.109-.343,1.114V161l.343.78.337.668.566.554.789.447.9.328.9.226h2.366l1.137-.226,1.126-.328,1.017-.334,1.92-.56,1.017-.221h2.023l1.017.221,1.92.56,1.126.334,1.017.328,1.126.226h2.377l1.011-.226.794-.328.783-.447.571-.554.446-.668.223-.78.12-.775-.12-1.109-.223-1.114-.446-1.109-.571-1.114-.669-1.222-.794-1.108-.9-1.109-1.017-1.114-1.017-1-1.012-.888-1.131-.888-1.126-.668-1.126-.667-1.251-.441-1.006-.22Z" transform="translate(-0.005)" fill="#39d753" fill-rule="evenodd"/>
    </g>
  </g>
</svg>
