<svg xmlns="http://www.w3.org/2000/svg" xmlns:xlink="http://www.w3.org/1999/xlink" width="158" height="43" viewBox="0 0 158 43">
  <defs>
    <clipPath id="clip-path">
      <rect id="Rectangle_16" data-name="Rectangle 16" width="41" height="43" transform="translate(-0.252 0)" fill="#f1efef"/>
    </clipPath>
  </defs>
  <g id="Group_3" data-name="Group 3" transform="translate(-29 -31)">
    <text id="What_sApp" data-name="What&apos;sApp" transform="translate(78 39)" fill="#f1f1f1" font-size="20" font-family="SegoeUI, Segoe UI"><tspan x="0" y="22">What&apos;sApp</tspan></text>
    <g id="Group_2" data-name="Group 2" transform="translate(179.252 -450.5)">
      <ellipse id="Ellipse_1" data-name="Ellipse 1" cx="17" cy="18" rx="17" ry="18" transform="translate(-147.252 484.5)" fill="#39d753"/>
      <g id="Whatsapp_Logo" transform="translate(-150 481.5)" clip-path="url(#clip-path)">
        <path id="Path_12" data-name="Path 12" d="M1452.156,88.125l-.728.153-.287.3-.433.307-.437.444-.571.9-.295.6-.142.6-.146.9-.142.9.142.9.146.9.721,1.654.582,1.2.425.6.732,1.049,1.729,2.259,1.3,1.2,1.452,1.2,1.587,1.2,1.732.9,2.024.9,1.587.452,1.3.145,1.154-.145.87-.307,1.008-.6.87-.75.291-.307.287-.452.288-.9v-1.654l-.288-.3-.721-.3-3.326-1.654-.284-.153h-.295l-.287.153-.288.3-1.59,1.952-.146.307h-.575l-.295-.153-2.024-1.049-1.728-1.356-.866-.75-.72-.758-.732-1.049-.72-1.2-.138-.3V96.1l.288-.452.571-.6.732-1.2v-.9l-1.59-3.913-.295-.452-.288-.3h-.582Zm7.078-7.664,1.587.145,1.59.307,1.59.3,1.587.6,1.452.758,1.3.9,1.3.9,1.3,1.2,1.008,1.21,1.016,1.5.87,1.355.721,1.5.575,1.654.433,1.654.3,1.654.138,1.654-.138,1.807-.3,1.654-.433,1.654-.575,1.654-.721,1.509-.728,1.347-1.008,1.356-1.157,1.2-1.154,1.2-1.3.9-1.441.9-1.452.75-1.441.605-1.587.451-1.74.145-1.736.153-2.161-.153-2.173-.452-2.02-.75-2.023-1.049-.575-.307-6.365,1.654,1.736-6.309-.433-.758-1.008-2.106-.87-2.251-.433-2.4-.146-2.412v-1.8l.295-1.654.433-1.654.575-1.654.72-1.509.728-1.356,1.008-1.347,1.008-1.21,1.3-1.049,1.154-1.049,1.449-.9,1.445-.758,1.448-.6,1.59-.3,1.729-.307Zm-.15-3.461-2.023.153-1.874.3-2.023.452-1.736.75-1.729.9-1.74,1.049-1.441,1.2-1.449,1.355-1.3,1.509-1.153,1.5-1.008,1.807-.87,1.8-.582,1.807-.571,2.105-.288,1.952-.149,2.106.287,2.856.437,2.558.866,2.557,1.157,2.558L1439,118.96h0l10.55-2.864,2.311,1.057,2.318.75,2.449.6,2.456.145,2.173-.145,1.874-.307,2.023-.6,1.736-.6,1.878-.9,1.59-1.049,1.587-1.2,1.452-1.356,1.292-1.5,1.165-1.509,1.008-1.8.866-1.807.721-1.807.437-2.105.288-1.953.145-2.259-.145-1.952-.288-2.106-.437-1.952-.721-1.807-.866-1.953-1.008-1.654-1.3-1.654-1.3-1.509-1.441-1.355-1.59-1.347-1.59-1.057-1.882-.75-1.729-.75-1.885-.452-2.023-.3Z" transform="translate(-1439 -76.449)" fill="#f1efef" fill-rule="evenodd"/>
      </g>
    </g>
  </g>
</svg>
