<svg xmlns="http://www.w3.org/2000/svg" xmlns:xlink="http://www.w3.org/1999/xlink" width="84" height="63" viewBox="0 0 84 63">
  <defs>
    <clipPath id="clip-path">
      <rect id="Rectangle_6" data-name="Rectangle 6" width="84" height="63" transform="translate(0.32 -0.047)"/>
    </clipPath>
  </defs>
  <g id="Message" transform="translate(-0.32 0.047)" clip-path="url(#clip-path)">
    <path id="Path_6" data-name="Path 6" d="M1380.952,146.021l-1.583.256-1.591.271-1.326.8-1.06,1.054-1.053,1.069-.537,1.325-.523,1.6-.258,1.6v3.177l.258.8.265.8.53.8.523.8,7.946,6.112,20.643,15.13,2.365,1.866,3.181,2.123,1.849,1.054,1.591,1.069,1.583.527h2.916l1.584-.527,1.849-1.069,1.591-1.054,3.181-2.123,2.379-1.866,20.642-15.13,7.932-6.112.8-.8.258-.8.537-.8v-3.975l-.272-1.6-.265-1.6-.8-1.325-1.053-1.069-1.06-1.054-1.326-.8-1.591-.271-1.583-.256Zm-6.878,20.7-.53.271-.265.271-.258.527v33.722l.258,1.6.523,1.6.537,1.325,1.053,1.069,1.06,1.054,1.326.8,1.591.271,1.583.256h68.52l1.583-.256,1.591-.271,1.326-.8,1.06-1.054,1.053-1.069.8-1.325.265-1.6.272-1.6V167.789l-.272-.527-.265-.271-.53-.271-.523.271-7.681,5.841-17.726,13.022-2.909,2.123-3.7,2.65-2.114,1.069-2.114,1.054-2.121.8h-4.493l-2.121-.8-2.114-.8-1.855-1.325-3.69-2.65L1400,185.854l-17.461-13.022-7.946-5.841Z" transform="translate(-1372.846 -146.161)" fill="#eee" fill-rule="evenodd"/>
  </g>
</svg>
