<svg xmlns="http://www.w3.org/2000/svg" xmlns:xlink="http://www.w3.org/1999/xlink" width="74" height="84" viewBox="0 0 74 84">
  <defs>
    <clipPath id="clip-path">
      <rect id="Rectangle_8" data-name="Rectangle 8" width="74" height="84" transform="translate(-0.487 -0.047)"/>
    </clipPath>
  </defs>
  <g id="Notifications" transform="translate(0.487 0.047)" clip-path="url(#clip-path)">
    <path id="Path_8" data-name="Path 8" d="M1320.788,109.02l-.8.525-1.067.27-.8.795-.53.781-.523.8-.272,1.065v4.5l-2.386.525-2.121.8-2.121.795-1.849,1.065-1.863,1.32-1.842,1.32-1.6,1.59-1.319,1.59-1.339,1.575-1.318,1.86L1298,132.3l-.8,1.86-.8,2.114-.53,2.37-.272,2.384v2.115l-.265,5.82-.8,5.039-1.053,3.69-1.326,3.449-1.332,2.384-1.584,2.115-2.909,2.91-.544,1.051-.523.795-.272.8V173.3l.272.8.523,1.065.8.795.53.525,1.067.525,1.06.269,1.053.255h63.344l1.067-.255,1.047-.269,1.067-.525.53-.525.8-.795.523-1.065.272-.8V171.19l-.272-.8-.523-.795-.53-1.051-2.909-2.91-1.6-2.115-1.318-2.384-1.339-3.449L1349.4,154l-.8-5.039-.265-5.82v-2.115l-.258-2.384-.544-2.37-.8-2.114-.781-1.86-1.067-2.114-1.318-1.86-1.326-1.575-1.332-1.59-1.577-1.59-1.863-1.32-1.849-1.32-1.863-1.065-2.121-.795-2.121-.8-2.386-.525v-4.5l-.272-1.065-.523-.8-.53-.781-.8-.795-1.067-.27-.8-.525Zm-9.285,73.809v2.114l.8,1.86.8,1.845,1.325,1.589,1.59,1.321,1.863,1.065,1.849.525,2.121.27,2.386-.27,1.863-.525,1.849-1.065,1.591-1.321,1.325-1.589.8-1.845.8-1.86v-2.114Z" transform="translate(-1284.837 -109.161)" fill="#eee" fill-rule="evenodd"/>
  </g>
</svg>
