<svg xmlns="http://www.w3.org/2000/svg" xmlns:xlink="http://www.w3.org/1999/xlink" width="70" height="80" viewBox="0 0 70 80">
  <defs>
    <clipPath id="clip-path">
      <rect id="Rectangle_9" data-name="Rectangle 9" width="70" height="80" transform="translate(0.074 -0.047)"/>
    </clipPath>
  </defs>
  <g id="profile" transform="translate(-0.074 0.047)" clip-path="url(#clip-path)">
    <path id="Path_9" data-name="Path 9" d="M1653.894,95l-2.016.256-2.009.243-2,.513-1.751.742-1.765.755-1.507,1.012-1.751,1.012-1.249,1.5-1.27,1.268-1.249,1.5-1,1.767-.753,1.754-.753,1.767-.5,2.011-.258,2.01-.258,2.01.258,2.01.258,2.011.5,2.023.753,1.754.753,1.767,1,1.5,1.249,1.767,1.27,1.254,1.249,1.255,1.751,1.254,1.507,1.012,1.765.755,1.751.756,2,.5,2.009.256,2.016.243,2-.243,2.009-.256,2-.5,1.751-.756,1.765-.755,1.751-1.012,1.507-1.254,1.249-1.255,1.507-1.254,1.011-1.767,1-1.5.753-1.767.753-1.754.5-2.023.258-2.011.258-2.01-.258-2.01-.258-2.01-.5-2.011-.753-1.767-.753-1.754-1-1.767-1.011-1.5-1.507-1.268-1.249-1.5-1.507-1.012-1.751-1.012-1.765-.755-1.751-.742-2-.513-2.009-.243Zm-14.05,45.017-2.009.243-2.26.257-2,.5-1.765.756-2.009.756-1.507,1.254-1.751,1.012-1.507,1.51-1.249,1.5-1.249,1.511-1.012,1.767-1.011,1.754-.74,2.01-.509,2.01-.244,2.024v10.307l.5,1.254.754,1.255.753,1.254,1.256,1.012,1.249.5,1.507.5,1.507.257h54.944l1.507-.257,1.256-.5,1.249-.5,1.256-1.012.753-1.254.754-1.255.5-1.254V158.876l-.244-2.024-.5-2.01-.754-2.01-1.011-1.754-1-1.767-1.263-1.511-1.249-1.5-1.507-1.51-1.514-1.012-1.744-1.254-2.009-.756-1.765-.756-2-.5-2.26-.257-2.009-.243h-2.755l-2.5,1-2.763,1.012-3.014.5h-6.014l-2.762-.5-3.014-1.012-2.5-1Z" transform="translate(-1619.016 -95.154)" fill="#434343" fill-rule="evenodd"/>
  </g>
</svg>
