<svg xmlns="http://www.w3.org/2000/svg" xmlns:xlink="http://www.w3.org/1999/xlink" width="25" height="25" viewBox="0 0 25 25">
  <defs>
    <clipPath id="clip-path">
      <rect id="Rectangle_17" data-name="Rectangle 17" width="25" height="25" transform="translate(0.045 -0.308)" fill="#fefefe"/>
    </clipPath>
  </defs>
  <g id="search" transform="translate(-0.045 0.308)" clip-path="url(#clip-path)">
    <path id="Path_13" data-name="Path 13" d="M1719.985,124.9l.618.08.618.075.618.159.538.155.544.31.541.314.465.314.464.389.385.469.314.465.3.549.314.545.154.549.151.624.08.624.08.624-.08.624-.08.624-.151.549-.154.624-.314.549-.3.465-.314.469-.385.469-.464.389-.465.39-.541.314-.544.234-.538.235-.618.155-.618.08h-1.242l-.618-.08-.539-.155-.618-.235-.544-.234-.464-.314-.461-.39-.464-.389-.388-.469-.39-.469-.308-.465-.23-.549-.234-.624-.154-.549-.077-.624v-1.248l.077-.624.154-.624.234-.549.23-.545.308-.549.39-.465.388-.469.464-.389.461-.314.464-.314.544-.31.618-.155.539-.159.618-.075Zm-.314-3.9-1.313.155-1.24.235-1.159.469-1.086.549-1,.7-.932.859-.849.938-.7,1.014-.541,1.094-.465,1.173-.234,1.249-.154,1.328v1.328l.234,1.4.231.628.234.7.231.624.387.628.385.624.465.545.467.549.538.545.544.549.618.39.538.469.7.39.618.31.618.235.7.234.618.159,1.163.155h1.083l1.083-.08,1.006-.235,1.006-.31,1.006-.394.852-.544.852-.545v.779l.074.39.234.39,4.8,4.843.231.155.154.159.464.076.387-.076.231-.159.154-.155,1.4-1.328.154-.235.077-.155.08-.469-.08-.39-.077-.234-.154-.155-4.8-4.843-.388-.314-.464-.075h-.772l.618-.859.465-.859.465-.938.307-1.014.154-1.093.16-1.093-.08-1.094-.08-1.093-.154-.7-.23-.624-.308-.7-.311-.624-.308-.624-.464-.624-.468-.624-.465-.549-.538-.469-.545-.544-.618-.469-.538-.389-.7-.314-.618-.31-.618-.235-.7-.234-1.317-.155Z" transform="translate(-1710.053 -121.045)" fill="#fefefe" fill-rule="evenodd"/>
  </g>
</svg>
