<svg xmlns="http://www.w3.org/2000/svg" xmlns:xlink="http://www.w3.org/1999/xlink" width="66" height="65" viewBox="0 0 66 65">
  <defs>
    <clipPath id="clip-path">
      <rect id="Rectangle_37" data-name="Rectangle 37" width="66" height="65" transform="translate(999 109)"/>
    </clipPath>
  </defs>
  <g id="send" transform="translate(-999 -109)" clip-path="url(#clip-path)">
    <path id="Path_23" data-name="Path 23" d="M1062.1,109l-.83.208-1.03.2-59.58,34.025-.828.612-.41.612-.211.82-.2.809.2.82.41.612.619.612.62.612,13.87,5.5,36.82-31.991.41-.2h.21l.41.2.42.415-.21.4v.208l-31.03,37.282V170.94l.21,1.016.41.809.63.612.82.415.83.2h.82l1.04-.4.62-.612,8.27-9.783,15.93,6.525.83.208h1.24l.63-.415.62-.4.41-.4.41-.612.21-.612,9.31-54.8v-1.016l-.21-.82-.62-.612-.62-.612-.63-.4Z" fill="#EEEe" fill-rule="evenodd"/>
  </g>
</svg>
