<svg xmlns="http://www.w3.org/2000/svg" xmlns:xlink="http://www.w3.org/1999/xlink" width="31" height="22" viewBox="0 0 31 22">
  <defs>
    <clipPath id="clip-path">
      <rect id="Rectangle_23" data-name="Rectangle 23" width="31" height="22" transform="translate(-0.281 -0.418)" fill="#f2f2f2"/>
    </clipPath>
  </defs>
  <g id="users" transform="translate(0.281 0.418)" clip-path="url(#clip-path)">
    <path id="Path_18" data-name="Path 18" d="M1805.191,110l-.539.079-.541.075-.464.079-.539.233-.464.234-.464.234-.385.309-.387.388-.311.392-.306.388-.311.467-.232.467-.153.463-.155.546-.077.542v1.088l.077.546.155.542.153.467.232.467.311.467.306.388.311.388.387.388.385.313.464.233.464.234.539.234.464.075.541.079.539.079.543-.079.539-.079.541-.075.46-.234.543-.234.385-.233.464-.313.387-.388.311-.388.306-.388.311-.467.232-.467.153-.467.155-.542.077-.546V114.9l-.077-.542-.155-.546-.153-.463-.232-.467-.311-.467-.306-.388-.311-.392-.387-.388-.464-.309-.385-.234-.543-.234-.46-.233-.541-.079-.539-.075Zm13.365,1.555-.387.075-.928.313-.771.388-.7.621-.541.7-.387.776-.306.859-.079.463v.934l.079.467.306.855.387.776.541.7.7.546.771.463.928.233.387.079.538.079.464-.079.464-.079.851-.233.77-.463.7-.546.541-.7.464-.776.228-.855.079-.467v-.934l-.079-.463-.228-.859-.464-.776-.541-.7-.7-.621-.77-.388-.851-.313-.464-.075Zm-1.779,10.806-.771.075-.7.159-.617.234-.617.309.385.467.385.542.387.546.232.621.232.621.153.621.079.7.077.7v1.864l-.077.313h8.495l.464-.079.464-.079.385-.229.311-.313.306-.313.234-.388.156-.467v-1.009l-.079-.542-.153-.467-.158-.546-.226-.467-.311-.463-.311-.392-.306-.388-.387-.388-.389-.313-.46-.229-.464-.233-.543-.234-.464-.079-.54-.079-.617-.075h-.153l-1.007.309-.539.079h-1.16l-.539-.079-1.007-.309Zm-15.217,0-.617.075-.543.079-.537.154-.464.158-.539.233-.464.309-.385.313-.39.309-.385.388-.307.467-.311.467-.232.467-.153.542-.153.546-.079.542v2.41l.153.467.232.388.311.313.307.309.389.158.46.154.464.079h13.829l.464-.079.46-.154.389-.158.307-.309.311-.313.153-.388.153-.467.079-.467v-1.4l-.079-.546-.074-.542-.079-.546-.232-.542-.232-.467-.232-.467-.387-.467-.309-.388-.387-.309-.464-.313-.46-.309-.464-.233-.541-.158-.466-.154-.617-.079-.539-.075h-.385l-.775.388-.77.234-.851.154h-1.777l-.851-.154-.77-.234-.775-.388Z" transform="translate(-1796.04 -110.076)" fill="#f2f2f2" fill-rule="evenodd"/>
  </g>
</svg>
