<svg xmlns="http://www.w3.org/2000/svg" width="28.152" height="19.156" viewBox="0 0 28.152 19.156">
  <g id="Group_31" data-name="Group 31" transform="translate(-253 -45.37)">
    <g id="Rectangle_32" data-name="Rectangle 32" transform="translate(253 48.896)" fill="none" stroke="#f7f7f7" stroke-width="2">
      <rect width="16" height="15" rx="4" stroke="none"/>
      <rect x="1" y="1" width="14" height="13" rx="3" fill="none"/>
    </g>
    <g id="Polygon_1" data-name="Polygon 1" transform="matrix(0.848, 0.53, -0.53, 0.848, 268.016, 45.37)" fill="none">
      <path d="M5.173,4.287a3,3,0,0,1,5.145,0l2.447,4.078a3,3,0,0,1-2.572,4.543H5.3A3,3,0,0,1,2.726,8.365Z" stroke="none"/>
      <path d="M 7.745142936706543 4.830949783325195 C 7.574903011322021 4.830949783325195 7.15056324005127 4.878259658813477 6.887653350830078 5.316449165344238 L 4.441072463989258 9.394088745117188 C 4.17036247253418 9.845258712768555 4.342002868652344 10.24873924255371 4.428362846374512 10.40126991271973 C 4.51472282409668 10.55379962921143 4.772402763366699 10.9085693359375 5.298572540283203 10.9085693359375 L 10.19171333312988 10.9085693359375 C 10.71788311004639 10.9085693359375 10.97555351257324 10.55379962921143 11.06191253662109 10.40126991271973 C 11.14827346801758 10.24873924255371 11.31991291046143 9.845258712768555 11.04920291900635 9.394079208374023 L 8.602643013000488 5.316459655761719 C 8.339723587036133 4.878259658813477 7.915382862091064 4.830949783325195 7.745142936706543 4.830949783325195 M 7.745142936706543 2.830951690673828 C 8.740079879760742 2.830951690673828 9.735017776489258 3.31645393371582 10.31762313842773 4.287459373474121 L 12.76419258117676 8.365089416503906 C 13.96393299102783 10.36465930938721 12.52360343933105 12.9085693359375 10.19171333312988 12.9085693359375 L 5.298572540283203 12.9085693359375 C 2.966683387756348 12.9085693359375 1.52634334564209 10.36465930938721 2.726093292236328 8.365089416503906 L 5.172662734985352 4.287459373474121 C 5.755268096923828 3.31645393371582 6.750205039978027 2.830951690673828 7.745142936706543 2.830951690673828 Z" stroke="none" fill="#f7f7f7"/>
    </g>
  </g>
</svg>
